<svg xmlns="http://www.w3.org/2000/svg" viewBox="0 0 63.02 82.57"><defs><style>.cls-1{fill:#f15d41;}.cls-2{fill:none;stroke:#f15d41;stroke-miterlimit:10;stroke-width:7.83px;}</style></defs><g id="Layer_2" data-name="Layer 2"><g id="Layer_1-2" data-name="Layer 1"><path class="cls-1" d="M54.24,30c-.32,0-.65,0-1,0H9.78c-.33,0-.66,0-1,0A9.77,9.77,0,0,0,0,39.69V72.8a9.77,9.77,0,0,0,9.78,9.77H53.26A9.77,9.77,0,0,0,63,72.8V39.69A9.77,9.77,0,0,0,54.24,30ZM34.9,59.53l.9,12.21H27.23l.9-12.21a9.7,9.7,0,1,1,6.77,0Z"/><path class="cls-2" d="M31.51,3.91A22.73,22.73,0,0,1,54.24,26.64"/><path class="cls-2" d="M8.79,26.64A22.73,22.73,0,0,1,31.51,3.91"/></g></g></svg>