<svg xmlns="http://www.w3.org/2000/svg" viewBox="0 0 97.04 142.86"><defs><style>.cls-1{fill:#f15d41;}.cls-2{fill:#f6f8eb;stroke:#f15d41;}.cls-2,.cls-3{stroke-miterlimit:10;stroke-width:12.87px;}.cls-3{fill:none;stroke:#f6f8eb;}</style></defs><g id="Layer_2" data-name="Layer 2"><g id="Layer_1-2" data-name="Layer 1"><path class="cls-1" d="M97,32.18V133.3a9.57,9.57,0,0,1-9.56,9.56H9.57A9.57,9.57,0,0,1,0,133.3V32.18a9.58,9.58,0,0,1,9.57-9.57H33.68V34.19h30.5V22.61h23.3A9.57,9.57,0,0,1,97,32.18Z"/><path class="cls-2" d="M64.18,19V34.19H33.68V19A12.55,12.55,0,0,1,46.25,6.44h5.36A12.55,12.55,0,0,1,64.18,19Z"/><line class="cls-3" x1="14.51" y1="65.76" x2="44.51" y2="65.76"/><line class="cls-3" x1="14.51" y1="87.65" x2="75.5" y2="87.65"/></g></g></svg>