<svg xmlns="http://www.w3.org/2000/svg" viewBox="0 0 78.17 78.17"><defs><style>.cls-1{fill:#f15d41;}</style></defs><g id="Layer_2" data-name="Layer 2"><g id="Layer_1-2" data-name="Layer 1"><path class="cls-1" d="M70.19,42.59a17.46,17.46,0,0,1,2.64,2.18,18.25,18.25,0,0,1,0,25.81c-13,13-38.12,8.91-56.13-9.11S-5.39,18.33,7.59,5.34a18.28,18.28,0,0,1,25.83,0A18.67,18.67,0,0,1,35.59,8,18.24,18.24,0,0,1,14.83,35.6,41.15,41.15,0,0,0,25.34,52.83,41.05,41.05,0,0,0,42.57,63.34,18.25,18.25,0,0,1,70.19,42.59Z"/></g></g></svg>